<?xml version="1.0" encoding="UTF-8" standalone="no"?><!DOCTYPE svg PUBLIC "-//W3C//DTD SVG 1.1//EN" "http://www.w3.org/Graphics/SVG/1.1/DTD/svg11.dtd"><svg width="100%" height="100%" viewBox="0 0 800 800" version="1.1" xmlns="http://www.w3.org/2000/svg" xmlns:xlink="http://www.w3.org/1999/xlink" xml:space="preserve" xmlns:serif="http://www.serif.com/" style="fill-rule:evenodd;clip-rule:evenodd;stroke-linejoin:round;stroke-miterlimit:1.41421;"><rect id="Couleur-2" serif:id="Couleur 2" x="0" y="0" width="800" height="800" style="fill:none;"/><g id="Calque4"><g id="Calque5"><g><path d="M242.505,92.011l0,0.157c-7.238,0 -13.374,1.259 -18.094,4.091c-21.241,12.43 -30.367,59.159 -22.972,119.262c1.888,14.633 4.563,29.894 8.182,45.628c30.838,-7.709 64.509,-13.531 100.067,-17.307c20.926,-29.108 42.953,-55.383 64.981,-78.512c-51.292,-47.358 -99.594,-73.319 -132.164,-73.319Zm-17.15,612.517c-21.398,-12.273 -30.681,-59.002 -23.444,-119.105c1.731,-14.79 4.563,-30.366 8.025,-46.257c30.838,7.552 64.508,13.373 99.909,17.149c21.241,29.108 43.268,55.541 65.453,78.669c-51.292,47.674 -99.438,73.792 -132.164,73.792c-7.08,-0.157 -13.059,-1.573 -17.779,-4.248Zm373.206,-119.892c7.395,60.103 -1.731,106.833 -22.972,119.262c-4.72,2.833 -10.856,4.091 -18.094,4.091c-32.569,0 -80.871,-25.961 -132.164,-73.319c22.028,-23.129 44.055,-49.404 64.981,-78.512c35.558,-3.776 69.229,-9.598 100.067,-17.307c3.619,15.891 6.451,31.153 8.182,45.785Zm-457.854,-104.944c-55.698,-23.758 -91.728,-54.911 -91.728,-79.613c0,-24.702 36.03,-56.013 91.728,-79.613c13.531,-5.822 28.321,-11.014 43.583,-15.892c8.968,30.839 20.768,62.936 35.401,95.819c-14.476,32.727 -26.119,64.666 -34.929,95.347c-15.577,-4.877 -30.367,-10.227 -44.055,-16.048Zm518.429,0c-13.531,5.821 -28.321,11.013 -43.583,15.891c-8.968,-30.838 -20.768,-62.935 -35.401,-95.819c14.475,-32.726 26.118,-64.666 34.929,-95.347c15.577,4.878 30.366,10.227 44.212,16.049c55.698,23.758 91.728,54.911 91.728,79.613c-0.157,24.702 -36.188,56.012 -91.885,79.613Zm-102.427,-388.31c-32.723,0.083 -80.797,26.194 -132.007,73.791c22.185,23.129 44.212,49.561 65.453,78.669c35.401,3.776 69.071,9.598 99.909,17.15c3.462,-15.891 6.294,-31.468 8.025,-46.258c7.237,-60.103 -2.046,-106.832 -23.444,-119.104c-4.877,-2.675 -10.699,-4.091 -17.936,-4.091l0,-0.157l0.157,-0.001l0,-34.928l-0.157,-0.001l0,34.93Zm-314.204,-34.458c43.268,0 99.909,30.524 157.18,83.704c57.271,-53.495 113.913,-84.333 157.181,-84.333l0,0.158c12.998,0.022 24.901,2.856 35.086,8.81c44.37,25.489 54.439,105.102 31.783,205.169c98.179,30.052 162.215,78.512 162.215,129.647c0,50.977 -63.722,99.437 -161.271,129.489c22.814,99.752 12.901,179.208 -31.311,204.697c-10.384,5.979 -22.342,8.811 -35.558,8.811c-43.268,0 -99.91,-30.524 -157.181,-83.704c-57.271,53.495 -113.912,84.333 -157.18,84.333c-13.217,0 -25.174,-2.832 -35.401,-8.811c-44.37,-25.489 -54.439,-105.102 -31.783,-205.169c-98.179,-30.051 -162.215,-78.511 -162.215,-129.646c0,-50.978 63.722,-99.281 161.586,-129.49c-22.814,-99.752 -12.902,-179.208 31.31,-204.696c10.385,-5.979 22.342,-8.811 35.559,-8.811l0,-0.158Z"/><clipPath id="_clip1"><path d="M242.505,92.011l0,0.157c-7.238,0 -13.374,1.259 -18.094,4.091c-21.241,12.43 -30.367,59.159 -22.972,119.262c1.888,14.633 4.563,29.894 8.182,45.628c30.838,-7.709 64.509,-13.531 100.067,-17.307c20.926,-29.108 42.953,-55.383 64.981,-78.512c-51.292,-47.358 -99.594,-73.319 -132.164,-73.319Zm-17.15,612.517c-21.398,-12.273 -30.681,-59.002 -23.444,-119.105c1.731,-14.79 4.563,-30.366 8.025,-46.257c30.838,7.552 64.508,13.373 99.909,17.149c21.241,29.108 43.268,55.541 65.453,78.669c-51.292,47.674 -99.438,73.792 -132.164,73.792c-7.08,-0.157 -13.059,-1.573 -17.779,-4.248Zm373.206,-119.892c7.395,60.103 -1.731,106.833 -22.972,119.262c-4.72,2.833 -10.856,4.091 -18.094,4.091c-32.569,0 -80.871,-25.961 -132.164,-73.319c22.028,-23.129 44.055,-49.404 64.981,-78.512c35.558,-3.776 69.229,-9.598 100.067,-17.307c3.619,15.891 6.451,31.153 8.182,45.785Zm-457.854,-104.944c-55.698,-23.758 -91.728,-54.911 -91.728,-79.613c0,-24.702 36.03,-56.013 91.728,-79.613c13.531,-5.822 28.321,-11.014 43.583,-15.892c8.968,30.839 20.768,62.936 35.401,95.819c-14.476,32.727 -26.119,64.666 -34.929,95.347c-15.577,-4.877 -30.367,-10.227 -44.055,-16.048Zm518.429,0c-13.531,5.821 -28.321,11.013 -43.583,15.891c-8.968,-30.838 -20.768,-62.935 -35.401,-95.819c14.475,-32.726 26.118,-64.666 34.929,-95.347c15.577,4.878 30.366,10.227 44.212,16.049c55.698,23.758 91.728,54.911 91.728,79.613c-0.157,24.702 -36.188,56.012 -91.885,79.613Zm-102.427,-388.31c-32.723,0.083 -80.797,26.194 -132.007,73.791c22.185,23.129 44.212,49.561 65.453,78.669c35.401,3.776 69.071,9.598 99.909,17.15c3.462,-15.891 6.294,-31.468 8.025,-46.258c7.237,-60.103 -2.046,-106.832 -23.444,-119.104c-4.877,-2.675 -10.699,-4.091 -17.936,-4.091l0,-0.157l0.157,-0.001l0,-34.928l-0.157,-0.001l0,34.93Zm-314.204,-34.458c43.268,0 99.909,30.524 157.18,83.704c57.271,-53.495 113.913,-84.333 157.181,-84.333l0,0.158c12.998,0.022 24.901,2.856 35.086,8.81c44.37,25.489 54.439,105.102 31.783,205.169c98.179,30.052 162.215,78.512 162.215,129.647c0,50.977 -63.722,99.437 -161.271,129.489c22.814,99.752 12.901,179.208 -31.311,204.697c-10.384,5.979 -22.342,8.811 -35.558,8.811c-43.268,0 -99.91,-30.524 -157.181,-83.704c-57.271,53.495 -113.912,84.333 -157.18,84.333c-13.217,0 -25.174,-2.832 -35.401,-8.811c-44.37,-25.489 -54.439,-105.102 -31.783,-205.169c-98.179,-30.051 -162.215,-78.511 -162.215,-129.646c0,-50.978 63.722,-99.281 161.586,-129.49c-22.814,-99.752 -12.902,-179.208 31.31,-204.696c10.385,-5.979 22.342,-8.811 35.559,-8.811l0,-0.158Z"/></clipPath><g clip-path="url(#_clip1)"><g id="Calque6"><path d="M400,5.861l0,788.278l-177.42,-41.032l-175.687,-175.687l-41.032,-177.42l41.032,-177.42l175.687,-175.687l177.42,-41.032Z" style="fill:url(#_Linear2);fill-rule:nonzero;"/><path d="M400,5.861l0,788.278l177.42,-41.032l175.109,-175.687l41.61,-177.42l-41.61,-177.42l-175.109,-175.687l-177.42,-41.032Z" style="fill:url(#_Linear3);fill-rule:nonzero;"/><g><g><g opacity="0.707143"><g><path d="M222.58,752.529l177.42,-746.668l-353.107,571.559l353.107,-176.264l-353.107,-178.576" style="fill:url(#_Linear4);fill-rule:nonzero;"/><path d="M46.893,577.42l175.687,175.109l-51.435,-131.765l-124.252,-43.344Z" style="fill:url(#_Linear5);fill-rule:nonzero;"/><path d="M46.893,222.58l175.687,-175.687l-51.435,134.077l-124.252,41.61Z" style="fill:url(#_Linear6);fill-rule:nonzero;"/><path d="M46.893,400l124.252,-219.03l-124.252,41.61l0,177.42Z" style="fill:url(#_Linear7);fill-rule:nonzero;"/><path d="M46.893,400l124.252,220.764l-124.252,-43.344l0,-177.42Z" style="fill:url(#_Linear8);fill-rule:nonzero;"/><path d="M222.58,46.893l-51.435,134.077l228.855,-134.655l-177.42,0.578Z" style="fill:url(#_Linear9);fill-rule:nonzero;"/><path d="M222.58,752.529l-51.435,-131.765l228.855,132.921l-177.42,-1.156Z" style="fill:url(#_Linear10);fill-rule:nonzero;"/><path d="M46.893,400l175.109,0.578l-50.857,-219.608l-124.252,219.03Z" style="fill:url(#_Linear11);fill-rule:nonzero;"/><path d="M46.893,400l175.109,0.578l-50.857,220.186l-124.252,-220.764Z" style="fill:url(#_Linear12);fill-rule:nonzero;"/><path d="M171.145,180.97l228.855,79.174l0,-213.829l-228.855,134.655Z" style="fill:url(#_Linear13);fill-rule:nonzero;"/><path d="M171.145,620.764l228.855,-78.597l0,211.518l-228.855,-132.921Z" style="fill:url(#_Linear14);fill-rule:nonzero;"/><path d="M400,542.167l-106.914,-87.843l-71.084,-53.746l-50.857,220.186l228.855,-78.597Z" style="fill:url(#_Linear15);fill-rule:nonzero;"/><path d="M287.884,112.776l112.116,429.391l0,-495.852" style="fill:url(#_Linear16);fill-rule:nonzero;"/><path d="M257.255,717.854l142.745,-418.411l0,494.696" style="fill:url(#_Linear17);fill-rule:nonzero;"/><path d="M46.893,222.58l175.109,177.998l-175.109,-0.578l-41.032,0" style="fill:url(#_Linear18);fill-rule:nonzero;"/><path d="M46.893,222.58l64.149,64.726l-64.149,112.694" style="fill:url(#_Linear19);fill-rule:nonzero;"/><path d="M222.002,400.578l-175.109,176.842l124.83,-397.028" style="fill:url(#_Linear20);fill-rule:nonzero;"/><path d="M222.002,400.578l-175.109,-177.998l124.83,394.716" style="fill:url(#_Linear21);fill-rule:nonzero;"/><path d="M397.688,576.264l-175.108,176.265l124.252,-396.451" style="fill:url(#_Linear22);fill-rule:nonzero;"/><path d="M397.688,223.736l-175.108,-176.843l124.252,397.029" style="fill:url(#_Linear23);fill-rule:nonzero;"/><path d="M400,259.566l-228.855,-78.596l50.857,219.608" style="fill:url(#_Linear24);fill-rule:nonzero;"/><path d="M400,542.745l-228.855,78.019l121.941,-166.44" style="fill:url(#_Linear25);fill-rule:nonzero;"/><path d="M323.715,46.893l76.285,212.673l-228.855,-78.596" style="fill:url(#_Linear26);fill-rule:nonzero;"/><path d="M323.715,754.841l76.285,-212.674l-228.855,79.175" style="fill:url(#_Linear27);fill-rule:nonzero;"/><path d="M222.002,400.578l0.578,-353.685l-113.85,154.882l-61.837,198.225" style="fill:url(#_Linear28);fill-rule:nonzero;"/><path d="M222.002,400.578l0.578,351.951l-107.493,-151.414l-68.194,-201.115" style="fill:url(#_Linear29);fill-rule:nonzero;"/><path d="M447.389,753.685l-186.089,-163.551l41.61,162.395" style="fill:url(#_Linear30);fill-rule:nonzero;"/><path d="M444.5,45.737l-186.089,165.284l42.765,-165.284" style="fill:url(#_Linear31);fill-rule:nonzero;"/><path d="M5.861,400l41.032,0l0,-177.42l-41.032,177.42Z" style="fill:url(#_Linear32);fill-rule:nonzero;"/><path d="M5.861,400l41.032,0l0,177.42l-41.032,-177.42Z" style="fill:url(#_Linear33);fill-rule:nonzero;"/></g><g><path d="M577.42,47.471l-177.42,746.668l353.107,-571.559l-353.107,176.264l353.107,178.576" style="fill:url(#_Linear34);fill-rule:nonzero;"/><path d="M753.107,222.58l-175.687,-175.109l51.435,131.765l124.252,43.344Z" style="fill:url(#_Linear35);fill-rule:nonzero;"/><path d="M753.107,577.42l-175.687,175.687l51.435,-134.077l124.252,-41.61Z" style="fill:url(#_Linear36);fill-rule:nonzero;"/><path d="M753.107,400l-124.252,219.03l124.252,-41.61l0,-177.42Z" style="fill:url(#_Linear37);fill-rule:nonzero;"/><path d="M753.107,400l-124.252,-220.764l124.252,43.344l0,177.42Z" style="fill:url(#_Linear38);fill-rule:nonzero;"/><path d="M577.42,753.107l51.435,-134.077l-228.855,134.655l177.42,-0.578Z" style="fill:url(#_Linear39);fill-rule:nonzero;"/><path d="M577.42,47.471l51.435,131.765l-228.855,-132.921l177.42,1.156Z" style="fill:url(#_Linear40);fill-rule:nonzero;"/><path d="M753.107,400l-175.109,-0.578l50.857,219.608l124.252,-219.03Z" style="fill:url(#_Linear41);fill-rule:nonzero;"/><path d="M753.107,400l-175.109,-0.578l50.857,-220.186l124.252,220.764Z" style="fill:url(#_Linear42);fill-rule:nonzero;"/><path d="M628.855,619.03l-228.855,-79.174l0,213.829l228.855,-134.655Z" style="fill:url(#_Linear43);fill-rule:nonzero;"/><path d="M628.855,179.236l-228.855,78.597l0,-211.518l228.855,132.921Z" style="fill:url(#_Linear44);fill-rule:nonzero;"/><path d="M400,257.833l106.914,87.843l71.084,53.746l50.857,-220.186l-228.855,78.597Z" style="fill:url(#_Linear45);fill-rule:nonzero;"/><path d="M512.116,687.224l-112.116,-429.391l0,495.852" style="fill:url(#_Linear46);fill-rule:nonzero;"/><path d="M542.745,82.146l-142.745,418.411l0,-494.696" style="fill:url(#_Linear47);fill-rule:nonzero;"/><path d="M753.107,577.42l-175.109,-177.998l175.109,0.578l41.032,0" style="fill:url(#_Linear48);fill-rule:nonzero;"/><path d="M753.107,577.42l-64.149,-64.726l64.149,-112.694" style="fill:url(#_Linear49);fill-rule:nonzero;"/><path d="M577.998,399.422l175.109,-176.842l-124.83,397.028" style="fill:url(#_Linear50);fill-rule:nonzero;"/><path d="M577.998,399.422l175.109,177.998l-124.83,-394.716" style="fill:url(#_Linear51);fill-rule:nonzero;"/><path d="M402.312,223.736l175.108,-176.265l-124.252,396.451" style="fill:url(#_Linear52);fill-rule:nonzero;"/><path d="M402.312,576.264l175.108,176.843l-124.252,-397.029" style="fill:url(#_Linear53);fill-rule:nonzero;"/><path d="M400,540.434l228.855,78.596l-50.857,-219.608" style="fill:url(#_Linear54);fill-rule:nonzero;"/><path d="M400,257.255l228.855,-78.019l-121.941,166.44" style="fill:url(#_Linear55);fill-rule:nonzero;"/><path d="M476.285,753.107l-76.285,-212.673l228.855,78.596" style="fill:url(#_Linear56);fill-rule:nonzero;"/><path d="M476.285,45.159l-76.285,212.674l228.855,-79.175" style="fill:url(#_Linear57);fill-rule:nonzero;"/><path d="M577.998,399.422l-0.578,353.685l113.85,-154.882l61.837,-198.225" style="fill:url(#_Linear58);fill-rule:nonzero;"/><path d="M577.998,399.422l-0.578,-351.951l107.493,151.414l68.194,201.115" style="fill:url(#_Linear59);fill-rule:nonzero;"/><path d="M352.611,46.315l186.089,163.551l-41.61,-162.395" style="fill:url(#_Linear60);fill-rule:nonzero;"/><path d="M355.5,754.263l186.089,-165.284l-42.765,165.284" style="fill:url(#_Linear61);fill-rule:nonzero;"/><path d="M794.139,400l-41.032,0l0,177.42l41.032,-177.42Z" style="fill:url(#_Linear62);fill-rule:nonzero;"/><path d="M794.139,400l-41.032,0l0,-177.42l41.032,177.42Z" style="fill:url(#_Linear63);fill-rule:nonzero;"/></g></g></g><circle cx="400" cy="400" r="187.823" style="fill:url(#_Radial64);"/></g></g></g></g></g><g id="Calque1"><path d="M407.508,63.284c0,-4.143 -3.364,-7.507 -7.508,-7.507c-4.144,0 -7.508,3.364 -7.508,7.507l0,114.789c0,4.144 3.364,7.508 7.508,7.508c4.144,0 7.508,-3.364 7.508,-7.508l0,-114.789Z"/><path d="M407.444,287.416c0,-4.108 -3.336,-7.444 -7.444,-7.444c-4.108,0 -7.444,3.336 -7.444,7.444l0,213.054c0,4.109 3.336,7.444 7.444,7.444c4.108,0 7.444,-3.335 7.444,-7.444l0,-213.054Z"/><path d="M447.492,407.444c4.108,0 7.444,-3.336 7.444,-7.444c0,-4.108 -3.336,-7.444 -7.444,-7.444l-113.992,0c-4.109,0 -7.444,3.336 -7.444,7.444c0,4.108 3.335,7.444 7.444,7.444l113.992,0Z"/><path d="M310.295,407.444c4.109,0 7.444,-3.336 7.444,-7.444c0,-4.108 -3.335,-7.444 -7.444,-7.444l-41.582,0c-4.109,0 -7.444,3.336 -7.444,7.444c0,4.108 3.335,7.444 7.444,7.444l41.582,0Z"/><path d="M503.498,407.444c4.108,0 7.444,-3.336 7.444,-7.444c0,-4.108 -3.336,-7.444 -7.444,-7.444l-34.941,0c-4.108,0 -7.444,3.336 -7.444,7.444c0,4.108 3.336,7.444 7.444,7.444l34.941,0Z"/><path d="M527.505,407.444c4.108,0 7.443,-3.336 7.443,-7.444c0,-4.108 -3.335,-7.444 -7.443,-7.444l-1.731,0c-4.108,0 -7.444,3.336 -7.444,7.444c0,4.108 3.336,7.444 7.444,7.444l1.731,0Z"/><path d="M521.475,334.412c3.505,-2.144 4.61,-6.73 2.466,-10.234c-2.144,-3.505 -6.73,-4.61 -10.235,-2.466l-64.281,39.325c-3.505,2.144 -4.609,6.73 -2.465,10.235c2.144,3.504 6.73,4.609 10.234,2.465l64.281,-39.325Z"/><path d="M437.038,386.068c3.504,-2.144 4.609,-6.73 2.465,-10.234c-2.144,-3.505 -6.73,-4.61 -10.235,-2.466l-150.941,92.341c-3.504,2.144 -4.609,6.73 -2.465,10.234c2.144,3.505 6.73,4.609 10.234,2.465l150.942,-92.34Z"/><path d="M370.239,334.22c-2.071,-3.548 -6.633,-4.749 -10.181,-2.678c-3.549,2.07 -4.749,6.632 -2.679,10.181l64.263,110.14c2.07,3.549 6.632,4.749 10.181,2.678c3.548,-2.07 4.748,-6.632 2.678,-10.181l-64.262,-110.14Z"/><path d="M448.228,467.888c-2.07,-3.549 -6.632,-4.749 -10.181,-2.678c-3.548,2.07 -4.748,6.632 -2.678,10.181l33.829,57.98c2.071,3.549 6.633,4.749 10.181,2.678c3.549,-2.07 4.749,-6.632 2.678,-10.181l-33.829,-57.98Z"/><path d="M332.747,269.962c-2.071,-3.548 -6.633,-4.749 -10.181,-2.678c-3.549,2.07 -4.749,6.632 -2.678,10.181l21.857,37.462c2.07,3.548 6.632,4.748 10.181,2.678c3.548,-2.071 4.748,-6.633 2.678,-10.181l-21.857,-37.462Z"/><path d="M459.918,311.617c2.063,-3.553 0.853,-8.113 -2.7,-10.175c-3.553,-2.063 -8.113,-0.853 -10.175,2.7l-80.596,138.828c-2.063,3.553 -0.853,8.112 2.7,10.175c3.553,2.063 8.112,0.853 10.175,-2.7l80.596,-138.828Z"/><path d="M478.924,278.593c2.062,-3.553 0.852,-8.113 -2.701,-10.175c-3.553,-2.063 -8.112,-0.853 -10.175,2.7l-5.4,9.303c-2.063,3.553 -0.853,8.112 2.7,10.175c3.553,2.062 8.112,0.853 10.175,-2.701l5.401,-9.302Z"/><path d="M368.896,468.116c2.063,-3.553 0.853,-8.112 -2.7,-10.175c-3.553,-2.063 -8.112,-0.853 -10.175,2.7l-1.702,2.932c-2.063,3.553 -0.853,8.112 2.7,10.175c3.553,2.063 8.113,0.853 10.175,-2.7l1.702,-2.932Z"/><path d="M357.343,488.018c2.062,-3.553 0.852,-8.113 -2.701,-10.175c-3.553,-2.063 -8.112,-0.853 -10.175,2.7l-10.547,18.168c-2.063,3.553 -0.853,8.112 2.7,10.175c3.553,2.063 8.113,0.853 10.175,-2.7l10.548,-18.168Z"/><path d="M302.975,334.301c-3.542,-2.083 -8.108,-0.898 -10.191,2.643c-2.082,3.541 -0.898,8.107 2.643,10.19l175.718,103.344c3.541,2.083 8.107,0.899 10.19,-2.643c2.083,-3.541 0.899,-8.107 -2.643,-10.19l-175.717,-103.344Z"/><path d="M407.508,621.245c0,-4.144 -3.364,-7.508 -7.508,-7.508c-4.144,0 -7.508,3.364 -7.508,7.508l0,114.789c0,4.144 3.364,7.508 7.508,7.508c4.144,0 7.508,-3.364 7.508,-7.508l0,-114.789Z"/><path d="M539.955,172.41c2.091,-3.623 0.848,-8.262 -2.775,-10.354c-3.622,-2.092 -8.262,-0.849 -10.354,2.774l-22.561,39.078c-2.092,3.623 -0.849,8.262 2.774,10.354c3.623,2.092 8.262,0.849 10.354,-2.774l22.562,-39.078Z"/><path d="M294.929,597.538c2.092,-3.623 0.849,-8.263 -2.774,-10.354c-3.623,-2.092 -8.262,-0.849 -10.354,2.774l-22.561,39.078c-2.092,3.623 -0.849,8.262 2.774,10.354c3.623,2.092 8.262,0.848 10.354,-2.774l22.561,-39.078Z"/><path d="M667.573,408.048c4.143,0 7.507,-3.364 7.507,-7.508c0,-4.144 -3.364,-7.508 -7.507,-7.508l-45.267,0c-4.144,0 -7.508,3.364 -7.508,7.508c0,4.144 3.364,7.508 7.508,7.508l45.267,0Z"/><path d="M176.889,408.414c4.143,0 7.507,-3.365 7.507,-7.508c0,-4.144 -3.364,-7.508 -7.507,-7.508l-45.267,0c-4.144,0 -7.508,3.364 -7.508,7.508c0,4.143 3.364,7.508 7.508,7.508l45.267,0Z"/><path d="M527.143,636.433c2.092,3.622 6.731,4.866 10.354,2.774c3.623,-2.092 4.866,-6.731 2.775,-10.354l-22.562,-39.078c-2.092,-3.623 -6.731,-4.866 -10.354,-2.774c-3.623,2.091 -4.866,6.731 -2.774,10.354l22.561,39.078Z"/><path d="M281.484,211.671c2.092,3.623 6.731,4.866 10.354,2.774c3.623,-2.092 4.866,-6.731 2.775,-10.354l-22.562,-39.078c-2.092,-3.623 -6.731,-4.866 -10.354,-2.774c-3.623,2.091 -4.866,6.731 -2.774,10.354l22.561,39.078Z"/><path d="M687.376,574.328c3.623,2.091 8.262,0.848 10.354,-2.775c2.091,-3.622 0.848,-8.262 -2.775,-10.353l-99.204,-57.276c-3.623,-2.092 -8.262,-0.849 -10.354,2.774c-2.092,3.623 -0.848,8.263 2.774,10.354l99.205,57.276Z"/><path d="M204.249,295.394c3.623,2.092 8.262,0.849 10.354,-2.774c2.092,-3.623 0.848,-8.262 -2.774,-10.354l-99.205,-57.275c-3.623,-2.092 -8.262,-0.849 -10.354,2.774c-2.091,3.623 -0.848,8.262 2.775,10.354l99.204,57.275Z"/><path d="M105.045,561.2c-3.623,2.091 -4.866,6.731 -2.775,10.353c2.092,3.623 6.731,4.866 10.354,2.775l99.205,-57.276c3.622,-2.091 4.866,-6.731 2.774,-10.354c-2.092,-3.623 -6.731,-4.866 -10.354,-2.774l-99.204,57.276Z"/><path d="M588.171,282.266c-3.622,2.092 -4.866,6.731 -2.774,10.354c2.092,3.623 6.731,4.866 10.354,2.774l99.204,-57.275c3.623,-2.092 4.866,-6.731 2.775,-10.354c-2.092,-3.623 -6.731,-4.866 -10.354,-2.774l-99.205,57.275Z"/></g></g><defs><linearGradient id="_Linear2" x1="0" y1="0" x2="1" y2="0" gradientUnits="userSpaceOnUse" gradientTransform="matrix(394.131,0,0,394.131,5.71437,399.904)"><stop offset="0" style="stop-color:#e72323;stop-opacity:1"/><stop offset="0.18" style="stop-color:#e72323;stop-opacity:1"/><stop offset="0.97" style="stop-color:#fbcd00;stop-opacity:1"/><stop offset="1" style="stop-color:#fbcd00;stop-opacity:1"/></linearGradient><linearGradient id="_Linear3" x1="0" y1="0" x2="1" y2="0" gradientUnits="userSpaceOnUse" gradientTransform="matrix(394.131,0,0,394.131,399.846,399.904)"><stop offset="0" style="stop-color:#35b5ae;stop-opacity:1"/><stop offset="0.15" style="stop-color:#35b5ae;stop-opacity:1"/><stop offset="0.88" style="stop-color:#25469a;stop-opacity:1"/><stop offset="1" style="stop-color:#25469a;stop-opacity:1"/></linearGradient><linearGradient id="_Linear4" x1="0" y1="0" x2="1" y2="0" gradientUnits="userSpaceOnUse" gradientTransform="matrix(-335.678,-12.1755,12.1755,-335.678,554.005,388.079)"><stop offset="0" style="stop-color:#fff;stop-opacity:1"/><stop offset="1" style="stop-color:#fff;stop-opacity:0"/></linearGradient><linearGradient id="_Linear5" x1="0" y1="0" x2="1" y2="0" gradientUnits="userSpaceOnUse" gradientTransform="matrix(-117.947,101.347,-101.347,-117.947,257.985,559.114)"><stop offset="0" style="stop-color:#fff;stop-opacity:1"/><stop offset="1" style="stop-color:#fff;stop-opacity:0"/></linearGradient><linearGradient id="_Linear6" x1="0" y1="0" x2="1" y2="0" gradientUnits="userSpaceOnUse" gradientTransform="matrix(-120.141,-103.233,103.233,-120.141,260.419,242.755)"><stop offset="0" style="stop-color:#fff;stop-opacity:1"/><stop offset="1" style="stop-color:#fff;stop-opacity:0"/></linearGradient><linearGradient id="_Linear7" x1="0" y1="0" x2="1" y2="0" gradientUnits="userSpaceOnUse" gradientTransform="matrix(177.484,122.738,-122.738,177.484,-53.8445,177.627)"><stop offset="0" style="stop-color:#fff;stop-opacity:1"/><stop offset="1" style="stop-color:#fff;stop-opacity:0"/></linearGradient><linearGradient id="_Linear8" x1="0" y1="0" x2="1" y2="0" gradientUnits="userSpaceOnUse" gradientTransform="matrix(177.484,-122.738,122.738,177.484,-53.4406,622.732)"><stop offset="0" style="stop-color:#fff;stop-opacity:1"/><stop offset="1" style="stop-color:#fff;stop-opacity:0"/></linearGradient><linearGradient id="_Linear9" x1="0" y1="0" x2="1" y2="0" gradientUnits="userSpaceOnUse" gradientTransform="matrix(-76.9235,-127.624,127.624,-76.9235,340.642,204.806)"><stop offset="0" style="stop-color:#fff;stop-opacity:1"/><stop offset="1" style="stop-color:#fff;stop-opacity:0"/></linearGradient><linearGradient id="_Linear10" x1="0" y1="0" x2="1" y2="0" gradientUnits="userSpaceOnUse" gradientTransform="matrix(-76.7421,127.322,-127.322,-76.7421,340.799,595.599)"><stop offset="0" style="stop-color:#fff;stop-opacity:1"/><stop offset="1" style="stop-color:#fff;stop-opacity:0"/></linearGradient><linearGradient id="_Linear11" x1="0" y1="0" x2="1" y2="0" gradientUnits="userSpaceOnUse" gradientTransform="matrix(172.088,159.732,-159.732,172.088,13.5203,201.572)"><stop offset="0" style="stop-color:#fff;stop-opacity:1"/><stop offset="1" style="stop-color:#fff;stop-opacity:0"/></linearGradient><linearGradient id="_Linear12" x1="0" y1="0" x2="1" y2="0" gradientUnits="userSpaceOnUse" gradientTransform="matrix(-197.285,-104.393,104.393,-197.285,314.775,573.122)"><stop offset="0" style="stop-color:#fff;stop-opacity:1"/><stop offset="1" style="stop-color:#fff;stop-opacity:0"/></linearGradient><linearGradient id="_Linear13" x1="0" y1="0" x2="1" y2="0" gradientUnits="userSpaceOnUse" gradientTransform="matrix(203.704,189.079,-189.079,203.704,169.669,5.9045)"><stop offset="0" style="stop-color:#fff;stop-opacity:1"/><stop offset="1" style="stop-color:#fff;stop-opacity:0"/></linearGradient><linearGradient id="_Linear14" x1="0" y1="0" x2="1" y2="0" gradientUnits="userSpaceOnUse" gradientTransform="matrix(203.422,-188.817,188.817,203.422,169.318,795.143)"><stop offset="0" style="stop-color:#fff;stop-opacity:1"/><stop offset="1" style="stop-color:#fff;stop-opacity:0"/></linearGradient><linearGradient id="_Linear15" x1="0" y1="0" x2="1" y2="0" gradientUnits="userSpaceOnUse" gradientTransform="matrix(-191.734,189.095,-189.095,-191.734,419.849,364.158)"><stop offset="0" style="stop-color:#fff;stop-opacity:1"/><stop offset="1" style="stop-color:#fff;stop-opacity:0"/></linearGradient><linearGradient id="_Linear16" x1="0" y1="0" x2="1" y2="0" gradientUnits="userSpaceOnUse" gradientTransform="matrix(-119.3,-4.32686,4.32686,-119.3,463.376,296.572)"><stop offset="0" style="stop-color:#fff;stop-opacity:1"/><stop offset="1" style="stop-color:#fff;stop-opacity:0"/></linearGradient><linearGradient id="_Linear17" x1="0" y1="0" x2="1" y2="0" gradientUnits="userSpaceOnUse" gradientTransform="matrix(-147.343,5.34399,-5.34399,-147.343,476.168,544.098)"><stop offset="0" style="stop-color:#fff;stop-opacity:1"/><stop offset="1" style="stop-color:#fff;stop-opacity:0"/></linearGradient><linearGradient id="_Linear18" x1="0" y1="0" x2="1" y2="0" gradientUnits="userSpaceOnUse" gradientTransform="matrix(-202.206,-7.33376,7.33376,-202.206,317.672,321.703)"><stop offset="0" style="stop-color:#fff;stop-opacity:1"/><stop offset="1" style="stop-color:#fff;stop-opacity:0"/></linearGradient><linearGradient id="_Linear19" x1="0" y1="0" x2="1" y2="0" gradientUnits="userSpaceOnUse" gradientTransform="matrix(-97.5106,-3.53685,3.53685,-97.5106,153.783,315.024)"><stop offset="0" style="stop-color:#fff;stop-opacity:1"/><stop offset="1" style="stop-color:#fff;stop-opacity:0"/></linearGradient><linearGradient id="_Linear20" x1="0" y1="0" x2="1" y2="0" gradientUnits="userSpaceOnUse" gradientTransform="matrix(246.241,-300.198,300.198,246.241,-113.296,668.698)"><stop offset="0" style="stop-color:#fff;stop-opacity:0.3"/><stop offset="1" style="stop-color:#fff;stop-opacity:0"/></linearGradient><linearGradient id="_Linear21" x1="0" y1="0" x2="1" y2="0" gradientUnits="userSpaceOnUse" gradientTransform="matrix(245.298,299.049,-299.049,245.298,-112.808,131.526)"><stop offset="0" style="stop-color:#fff;stop-opacity:0.3"/><stop offset="1" style="stop-color:#fff;stop-opacity:0"/></linearGradient><linearGradient id="_Linear22" x1="0" y1="0" x2="1" y2="0" gradientUnits="userSpaceOnUse" gradientTransform="matrix(246.266,-300.226,300.226,246.266,62.1785,844.204)"><stop offset="0" style="stop-color:#fff;stop-opacity:0.3"/><stop offset="1" style="stop-color:#fff;stop-opacity:0"/></linearGradient><linearGradient id="_Linear23" x1="0" y1="0" x2="1" y2="0" gradientUnits="userSpaceOnUse" gradientTransform="matrix(246.266,300.226,-300.226,246.266,62.1785,-44.432)"><stop offset="0" style="stop-color:#fff;stop-opacity:0.3"/><stop offset="1" style="stop-color:#fff;stop-opacity:0"/></linearGradient><linearGradient id="_Linear24" x1="0" y1="0" x2="1" y2="0" gradientUnits="userSpaceOnUse" gradientTransform="matrix(223.601,-47.3007,47.3007,223.601,52.3557,321.294)"><stop offset="0" style="stop-color:#fff;stop-opacity:1"/><stop offset="1" style="stop-color:#fff;stop-opacity:0"/></linearGradient><linearGradient id="_Linear25" x1="0" y1="0" x2="1" y2="0" gradientUnits="userSpaceOnUse" gradientTransform="matrix(224.1,47.407,-47.407,224.1,48.0583,498.562)"><stop offset="0" style="stop-color:#fff;stop-opacity:1"/><stop offset="1" style="stop-color:#fff;stop-opacity:0"/></linearGradient><linearGradient id="_Linear26" x1="0" y1="0" x2="1" y2="0" gradientUnits="userSpaceOnUse" gradientTransform="matrix(-125.728,-167.414,167.414,-125.728,404.148,322.243)"><stop offset="0" style="stop-color:#fff;stop-opacity:1"/><stop offset="1" style="stop-color:#fff;stop-opacity:0"/></linearGradient><linearGradient id="_Linear27" x1="0" y1="0" x2="1" y2="0" gradientUnits="userSpaceOnUse" gradientTransform="matrix(-125.629,167.282,-167.282,-125.629,403.984,479.706)"><stop offset="0" style="stop-color:#fff;stop-opacity:1"/><stop offset="1" style="stop-color:#fff;stop-opacity:0"/></linearGradient><linearGradient id="_Linear28" x1="0" y1="0" x2="1" y2="0" gradientUnits="userSpaceOnUse" gradientTransform="matrix(0.977886,432.297,-432.297,0.977886,134,-70.1501)"><stop offset="0" style="stop-color:#fff;stop-opacity:0.3"/><stop offset="1" style="stop-color:#fff;stop-opacity:0"/></linearGradient><linearGradient id="_Linear29" x1="0" y1="0" x2="1" y2="0" gradientUnits="userSpaceOnUse" gradientTransform="matrix(0.974617,-430.842,430.842,0.974617,133.995,869.532)"><stop offset="0" style="stop-color:#fff;stop-opacity:0.3"/><stop offset="1" style="stop-color:#fff;stop-opacity:0"/></linearGradient><linearGradient id="_Linear30" x1="0" y1="0" x2="1" y2="0" gradientUnits="userSpaceOnUse" gradientTransform="matrix(174.543,111.229,-111.229,174.543,160.366,593.77)"><stop offset="0" style="stop-color:#fff;stop-opacity:1"/><stop offset="1" style="stop-color:#fff;stop-opacity:0"/></linearGradient><linearGradient id="_Linear31" x1="0" y1="0" x2="1" y2="0" gradientUnits="userSpaceOnUse" gradientTransform="matrix(175.095,-111.58,111.58,175.095,157.217,206.677)"><stop offset="0" style="stop-color:#fff;stop-opacity:1"/><stop offset="1" style="stop-color:#fff;stop-opacity:0"/></linearGradient><linearGradient id="_Linear32" x1="0" y1="0" x2="1" y2="0" gradientUnits="userSpaceOnUse" gradientTransform="matrix(117.32,165.867,-165.867,117.32,-37.3046,221.209)"><stop offset="0" style="stop-color:#fff;stop-opacity:0.7"/><stop offset="0.36" style="stop-color:#fff;stop-opacity:0.485882"/><stop offset="1" style="stop-color:#fff;stop-opacity:0"/></linearGradient><linearGradient id="_Linear33" x1="0" y1="0" x2="1" y2="0" gradientUnits="userSpaceOnUse" gradientTransform="matrix(117.32,-165.868,165.868,117.32,-37.3046,578.622)"><stop offset="0" style="stop-color:#fff;stop-opacity:0.7"/><stop offset="0.36" style="stop-color:#fff;stop-opacity:0.485882"/><stop offset="1" style="stop-color:#fff;stop-opacity:0"/></linearGradient><linearGradient id="_Linear34" x1="0" y1="0" x2="1" y2="0" gradientUnits="userSpaceOnUse" gradientTransform="matrix(335.678,12.1755,-12.1755,335.678,245.995,411.921)"><stop offset="0" style="stop-color:#fff;stop-opacity:1"/><stop offset="1" style="stop-color:#fff;stop-opacity:0"/></linearGradient><linearGradient id="_Linear35" x1="0" y1="0" x2="1" y2="0" gradientUnits="userSpaceOnUse" gradientTransform="matrix(117.947,-101.347,101.347,117.947,542.015,240.886)"><stop offset="0" style="stop-color:#fff;stop-opacity:1"/><stop offset="1" style="stop-color:#fff;stop-opacity:0"/></linearGradient><linearGradient id="_Linear36" x1="0" y1="0" x2="1" y2="0" gradientUnits="userSpaceOnUse" gradientTransform="matrix(120.141,103.233,-103.233,120.141,539.581,557.245)"><stop offset="0" style="stop-color:#fff;stop-opacity:1"/><stop offset="1" style="stop-color:#fff;stop-opacity:0"/></linearGradient><linearGradient id="_Linear37" x1="0" y1="0" x2="1" y2="0" gradientUnits="userSpaceOnUse" gradientTransform="matrix(-177.484,-122.738,122.738,-177.484,853.845,622.373)"><stop offset="0" style="stop-color:#fff;stop-opacity:1"/><stop offset="1" style="stop-color:#fff;stop-opacity:0"/></linearGradient><linearGradient id="_Linear38" x1="0" y1="0" x2="1" y2="0" gradientUnits="userSpaceOnUse" gradientTransform="matrix(-177.484,122.738,-122.738,-177.484,853.441,177.268)"><stop offset="0" style="stop-color:#fff;stop-opacity:1"/><stop offset="1" style="stop-color:#fff;stop-opacity:0"/></linearGradient><linearGradient id="_Linear39" x1="0" y1="0" x2="1" y2="0" gradientUnits="userSpaceOnUse" gradientTransform="matrix(76.9235,127.624,-127.624,76.9235,459.358,595.194)"><stop offset="0" style="stop-color:#fff;stop-opacity:1"/><stop offset="1" style="stop-color:#fff;stop-opacity:0"/></linearGradient><linearGradient id="_Linear40" x1="0" y1="0" x2="1" y2="0" gradientUnits="userSpaceOnUse" gradientTransform="matrix(76.7421,-127.322,127.322,76.7421,459.201,204.401)"><stop offset="0" style="stop-color:#fff;stop-opacity:1"/><stop offset="1" style="stop-color:#fff;stop-opacity:0"/></linearGradient><linearGradient id="_Linear41" x1="0" y1="0" x2="1" y2="0" gradientUnits="userSpaceOnUse" gradientTransform="matrix(-172.088,-159.732,159.732,-172.088,786.48,598.428)"><stop offset="0" style="stop-color:#fff;stop-opacity:1"/><stop offset="1" style="stop-color:#fff;stop-opacity:0"/></linearGradient><linearGradient id="_Linear42" x1="0" y1="0" x2="1" y2="0" gradientUnits="userSpaceOnUse" gradientTransform="matrix(197.285,104.393,-104.393,197.285,485.225,226.878)"><stop offset="0" style="stop-color:#fff;stop-opacity:1"/><stop offset="1" style="stop-color:#fff;stop-opacity:0"/></linearGradient><linearGradient id="_Linear43" x1="0" y1="0" x2="1" y2="0" gradientUnits="userSpaceOnUse" gradientTransform="matrix(-203.704,-189.079,189.079,-203.704,630.331,794.095)"><stop offset="0" style="stop-color:#fff;stop-opacity:1"/><stop offset="1" style="stop-color:#fff;stop-opacity:0"/></linearGradient><linearGradient id="_Linear44" x1="0" y1="0" x2="1" y2="0" gradientUnits="userSpaceOnUse" gradientTransform="matrix(-203.422,188.817,-188.817,-203.422,630.682,4.85732)"><stop offset="0" style="stop-color:#fff;stop-opacity:1"/><stop offset="1" style="stop-color:#fff;stop-opacity:0"/></linearGradient><linearGradient id="_Linear45" x1="0" y1="0" x2="1" y2="0" gradientUnits="userSpaceOnUse" gradientTransform="matrix(191.734,-189.095,189.095,191.734,380.151,435.842)"><stop offset="0" style="stop-color:#fff;stop-opacity:1"/><stop offset="1" style="stop-color:#fff;stop-opacity:0"/></linearGradient><linearGradient id="_Linear46" x1="0" y1="0" x2="1" y2="0" gradientUnits="userSpaceOnUse" gradientTransform="matrix(119.3,4.32686,-4.32686,119.3,336.624,503.428)"><stop offset="0" style="stop-color:#fff;stop-opacity:1"/><stop offset="1" style="stop-color:#fff;stop-opacity:0"/></linearGradient><linearGradient id="_Linear47" x1="0" y1="0" x2="1" y2="0" gradientUnits="userSpaceOnUse" gradientTransform="matrix(147.343,-5.34399,5.34399,147.343,323.832,255.902)"><stop offset="0" style="stop-color:#fff;stop-opacity:1"/><stop offset="1" style="stop-color:#fff;stop-opacity:0"/></linearGradient><linearGradient id="_Linear48" x1="0" y1="0" x2="1" y2="0" gradientUnits="userSpaceOnUse" gradientTransform="matrix(202.206,7.33376,-7.33376,202.206,482.328,478.297)"><stop offset="0" style="stop-color:#fff;stop-opacity:1"/><stop offset="1" style="stop-color:#fff;stop-opacity:0"/></linearGradient><linearGradient id="_Linear49" x1="0" y1="0" x2="1" y2="0" gradientUnits="userSpaceOnUse" gradientTransform="matrix(97.5106,3.53685,-3.53685,97.5106,646.217,484.976)"><stop offset="0" style="stop-color:#fff;stop-opacity:1"/><stop offset="1" style="stop-color:#fff;stop-opacity:0"/></linearGradient><linearGradient id="_Linear50" x1="0" y1="0" x2="1" y2="0" gradientUnits="userSpaceOnUse" gradientTransform="matrix(-246.241,300.198,-300.198,-246.241,913.296,131.302)"><stop offset="0" style="stop-color:#fff;stop-opacity:0.3"/><stop offset="1" style="stop-color:#fff;stop-opacity:0"/></linearGradient><linearGradient id="_Linear51" x1="0" y1="0" x2="1" y2="0" gradientUnits="userSpaceOnUse" gradientTransform="matrix(-245.298,-299.049,299.049,-245.298,912.808,668.474)"><stop offset="0" style="stop-color:#fff;stop-opacity:0.3"/><stop offset="1" style="stop-color:#fff;stop-opacity:0"/></linearGradient><linearGradient id="_Linear52" x1="0" y1="0" x2="1" y2="0" gradientUnits="userSpaceOnUse" gradientTransform="matrix(-246.266,300.226,-300.226,-246.266,737.821,-44.2037)"><stop offset="0" style="stop-color:#fff;stop-opacity:0.3"/><stop offset="1" style="stop-color:#fff;stop-opacity:0"/></linearGradient><linearGradient id="_Linear53" x1="0" y1="0" x2="1" y2="0" gradientUnits="userSpaceOnUse" gradientTransform="matrix(-246.266,-300.226,300.226,-246.266,737.821,844.432)"><stop offset="0" style="stop-color:#fff;stop-opacity:0.3"/><stop offset="1" style="stop-color:#fff;stop-opacity:0"/></linearGradient><linearGradient id="_Linear54" x1="0" y1="0" x2="1" y2="0" gradientUnits="userSpaceOnUse" gradientTransform="matrix(-223.601,47.3007,-47.3007,-223.601,747.644,478.706)"><stop offset="0" style="stop-color:#fff;stop-opacity:1"/><stop offset="1" style="stop-color:#fff;stop-opacity:0"/></linearGradient><linearGradient id="_Linear55" x1="0" y1="0" x2="1" y2="0" gradientUnits="userSpaceOnUse" gradientTransform="matrix(-224.1,-47.407,47.407,-224.1,751.942,301.438)"><stop offset="0" style="stop-color:#fff;stop-opacity:1"/><stop offset="1" style="stop-color:#fff;stop-opacity:0"/></linearGradient><linearGradient id="_Linear56" x1="0" y1="0" x2="1" y2="0" gradientUnits="userSpaceOnUse" gradientTransform="matrix(125.728,167.414,-167.414,125.728,395.852,477.757)"><stop offset="0" style="stop-color:#fff;stop-opacity:1"/><stop offset="1" style="stop-color:#fff;stop-opacity:0"/></linearGradient><linearGradient id="_Linear57" x1="0" y1="0" x2="1" y2="0" gradientUnits="userSpaceOnUse" gradientTransform="matrix(125.629,-167.282,167.282,125.629,396.016,320.294)"><stop offset="0" style="stop-color:#fff;stop-opacity:1"/><stop offset="1" style="stop-color:#fff;stop-opacity:0"/></linearGradient><linearGradient id="_Linear58" x1="0" y1="0" x2="1" y2="0" gradientUnits="userSpaceOnUse" gradientTransform="matrix(-0.977886,-432.297,432.297,-0.977886,666,870.15)"><stop offset="0" style="stop-color:#fff;stop-opacity:0.3"/><stop offset="1" style="stop-color:#fff;stop-opacity:0"/></linearGradient><linearGradient id="_Linear59" x1="0" y1="0" x2="1" y2="0" gradientUnits="userSpaceOnUse" gradientTransform="matrix(-0.974617,430.842,-430.842,-0.974617,666.005,-69.5317)"><stop offset="0" style="stop-color:#fff;stop-opacity:0.3"/><stop offset="1" style="stop-color:#fff;stop-opacity:0"/></linearGradient><linearGradient id="_Linear60" x1="0" y1="0" x2="1" y2="0" gradientUnits="userSpaceOnUse" gradientTransform="matrix(-174.543,-111.229,111.229,-174.543,639.634,206.23)"><stop offset="0" style="stop-color:#fff;stop-opacity:1"/><stop offset="1" style="stop-color:#fff;stop-opacity:0"/></linearGradient><linearGradient id="_Linear61" x1="0" y1="0" x2="1" y2="0" gradientUnits="userSpaceOnUse" gradientTransform="matrix(-175.095,111.58,-111.58,-175.095,642.783,593.323)"><stop offset="0" style="stop-color:#fff;stop-opacity:1"/><stop offset="1" style="stop-color:#fff;stop-opacity:0"/></linearGradient><linearGradient id="_Linear62" x1="0" y1="0" x2="1" y2="0" gradientUnits="userSpaceOnUse" gradientTransform="matrix(-117.32,-165.867,165.867,-117.32,837.305,578.791)"><stop offset="0" style="stop-color:#fff;stop-opacity:0.7"/><stop offset="0.36" style="stop-color:#fff;stop-opacity:0.485882"/><stop offset="1" style="stop-color:#fff;stop-opacity:0"/></linearGradient><linearGradient id="_Linear63" x1="0" y1="0" x2="1" y2="0" gradientUnits="userSpaceOnUse" gradientTransform="matrix(-117.32,165.868,-165.868,-117.32,837.305,221.378)"><stop offset="0" style="stop-color:#fff;stop-opacity:0.7"/><stop offset="0.36" style="stop-color:#fff;stop-opacity:0.485882"/><stop offset="1" style="stop-color:#fff;stop-opacity:0"/></linearGradient><radialGradient id="_Radial64" cx="0" cy="0" r="1" gradientUnits="userSpaceOnUse" gradientTransform="matrix(187.726,0,0,187.726,399.846,399.887)"><stop offset="0" style="stop-color:#fff;stop-opacity:0.5"/><stop offset="1" style="stop-color:#fff;stop-opacity:0"/></radialGradient></defs></svg>